{
  "accessors": [
    {
      "bufferView": 2,
      "componentType": 5126,
      "count": 855,
      "max": [
        0.5362802147865295,
        0.5884451270103455,
        0.6008569002151489
      ],
      "min": [
        -0.24876628816127777,
        -0.572918713092804,
        -0.027644677087664604
      ],
      "type": "VEC3"
    },
    {
      "bufferView": 2,
      "byteOffset": 10260,
      "componentType": 5126,
      "count": 855,
      "max": [
        0.999753475189209,
        0.9990637302398682,
        0.9998239874839783
      ],
      "min": [
        -0.999030351638794,
        -0.9992318153381348,
        -0.2922321557998657
      ],
      "type": "VEC3"
    },
    {
      "bufferView": 1,
      "componentType": 5126,
      "count": 855,
      "max": [
        0.994140625,
        1.0087890625
      ],
      "min": [
        0.0016384124755859375,
        0.004169464111328125
      ],
      "type": "VEC2"
    },
    {
      "bufferView": 0,
      "componentType": 5125,
      "count": 1950,
      "type": "SCALAR"
    }
  ],
  "asset": {
    "extras": {
      "author": "Khyoocumber (https://sketchfab.com/Khyoocumber)",
      "license": "CC-BY-4.0 (http://creativecommons.org/licenses/by/4.0/)",
      "source": "https://sketchfab.com/3d-models/chinese-wine-jar-lowpoly-prop-f930b224837145a39b89c95349dd2720",
      "title": "Chinese wine jar lowpoly prop"
    },
    "generator": "Sketchfab-15.33.0",
    "version": "2.0"
  },
  "bufferViews": [
    {
      "buffer": 0,
      "byteLength": 7800,
      "name": "floatBufferViews",
      "target": 34963
    },
    {
      "buffer": 0,
      "byteLength": 6840,
      "byteOffset": 7800,
      "byteStride": 8,
      "name": "floatBufferViews",
      "target": 34962
    },
    {
      "buffer": 0,
      "byteLength": 20520,
      "byteOffset": 14640,
      "byteStride": 12,
      "name": "floatBufferViews",
      "target": 34962
    }
  ],
  "buffers": [
    {
      "byteLength": 35160,
      "uri": "scene.bin"
    }
  ],
  "images": [
    {
      "uri": "textures/C_10016_baseColor.png"
    }
  ],
  "materials": [
    {
      "doubleSided": true,
      "name": "C_10016",
      "pbrMetallicRoughness": {
        "baseColorTexture": {
          "index": 0
        },
        "metallicFactor": 0.0,
        "roughnessFactor": 0.9577051494623774
      }
    }
  ],
  "meshes": [
    {
      "name": "C_10016_C_10016_0",
      "primitives": [
        {
          "attributes": {
            "NORMAL": 1,
            "POSITION": 0,
            "TEXCOORD_0": 2
          },
          "indices": 3,
          "material": 0,
          "mode": 4
        }
      ]
    }
  ],
  "nodes": [
    {
      "children": [
        1
      ],
      "matrix": [
        1.0,
        0.0,
        0.0,
        0.0,
        0.0,
        2.220446049250313e-16,
        -1.0,
        0.0,
        0.0,
        1.0,
        2.220446049250313e-16,
        0.0,
        0.0,
        0.0,
        0.0,
        1.0
      ],
      "name": "Sketchfab_model"
    },
    {
      "children": [
        2
      ],
      "matrix": [
        0.009999999776482582,
        0.0,
        0.0,
        0.0,
        0.0,
        0.0,
        0.009999999776482582,
        0.0,
        0.0,
        -0.009999999776482582,
        0.0,
        0.0,
        0.0,
        0.0,
        0.0,
        1.0
      ],
      "name": "C_10016.fbx"
    },
    {
      "children": [
        3
      ],
      "name": "RootNode"
    },
    {
      "children": [
        4
      ],
      "name": "C_10016"
    },
    {
      "children": [
        5
      ],
      "matrix": [
        1.0,
        0.0,
        0.0,
        0.0,
        0.0,
        -1.331580541386046e-07,
        -0.9999999999999911,
        0.0,
        0.0,
        0.9999999999999911,
        -1.331580541386046e-07,
        0.0,
        0.0,
        0.0,
        0.0,
        1.0
      ],
      "name": "C_10016"
    },
    {
      "mesh": 0,
      "name": "C_10016_C_10016_0"
    }
  ],
  "samplers": [
    {
      "magFilter": 9729,
      "minFilter": 9987,
      "wrapS": 10497,
      "wrapT": 10497
    }
  ],
  "scene": 0,
  "scenes": [
    {
      "name": "Sketchfab_Scene",
      "nodes": [
        0
      ]
    }
  ],
  "textures": [
    {
      "sampler": 0,
      "source": 0
    }
  ]
}
